<?xml version="1.0" encoding="UTF-8"?>
<svg id="Layer_2" data-name="Layer 2" xmlns="http://www.w3.org/2000/svg" viewBox="0 0 109.62 68.74">
  <defs>
    <style>
      .cls-1 {
        fill: #1bb680;
      }

      .cls-1, .cls-2 {
        stroke-width: 0px;
      }

      .cls-2 {
        fill: #f8f8f8;
      }
    </style>
  </defs>
  <g id="Layer_1-2" data-name="Layer 1">
    <g>
      <g>
        <path class="cls-1" d="m85.97,68.74c-6.12,0-10.76-3.48-12.34-8.85l-2.46,6.52c-.45,1.18-1.58,1.97-2.85,1.97h-5.55c-1.26,0-2.39-.78-2.84-1.96l-3.27-8.55v7.46c0,1.68-1.36,3.04-3.04,3.04h-5.48c-.56,0-1.08-.15-1.53-.41-.45.27-.98.42-1.54.42h-5.62c-1.68,0-3.04-1.36-3.04-3.04v-7.47h-5.36v7.47c0,1.68-1.36,3.04-3.04,3.04h-5.66c-1.68,0-3.04-1.36-3.04-3.04v-22.86c0-.82.33-1.61.92-2.18l.38-.37h-1.62c-1.68,0-3.04-1.36-3.04-3.04v-17.71h-5.29c-1.68,0-3.04-1.36-3.04-3.04v-2.12c0-.82.33-1.61.92-2.18l3.09-3c.57-.55,1.33-.86,2.12-.86h16.18c.79,0,1.55.31,2.12.86l3.09,3c.59.57.92,1.36.92,2.18v.71c.28-.08.57-.12.86-.12h8.2v-.95c0-.82.33-1.61.92-2.18l3.09-3c.57-.55,1.33-.86,2.12-.86h2.39c1.68,0,3.04,1.36,3.04,3.04v4.43c0,.46-.1.89-.28,1.28.02.05.04.09.06.14.35-.35.76-.74,1.21-1.18.57-.56,1.33-.87,2.13-.87h2.36c.69,0,1.32.23,1.83.61,1.15-.54,2.39-.82,3.69-.82,2.45,0,4.42.59,5.94,1.78,1.54-1.17,3.49-1.78,5.8-1.78,4.25,0,6.55,2.1,7.74,3.86.15.23.29.46.42.69,1.78-2.83,5.35-4.55,9.97-4.55,5.35,0,8.38,2.25,9.99,4.13.02.03.04.05.07.08.41.52.75,1.07,1.02,1.63.55,1.17.3,2.56-.62,3.46-.5.49-.94.92-1.3,1.27,2.56,1.94,2.93,4.55,2.93,5.89,0,5.81-4.62,9.57-11.78,9.57-3.55,0-6.51-.92-8.62-2.61-.35,1.3-1.53,2.25-2.94,2.25h-5.45c-1.68,0-3.04-1.36-3.04-3.04v-10.56c0-.74-.12-1.12-.19-1.28,0,0-.02,0-.03,0-.08,0-.11,0-.11,0,0,.04-.22.46-.22,1.34v10.49c0,1.68-1.36,3.04-3.04,3.04h-5.43c-1.68,0-3.04-1.36-3.04-3.04v-10.49c0-.78-.17-1.2-.27-1.35-.03,0-.05,0-.05,0-.02.04-.23.47-.23,1.42v10.41c0,1.68-1.36,3.04-3.04,3.04h-5.48v3.62c0,.05,0,.1,0,.15.53-.41,1.18-.63,1.85-.63h2.81c1.3,0,2.45.82,2.88,2.05l1.48,4.28,1.5-4.29c.43-1.22,1.58-2.04,2.87-2.04h5.52c1,0,1.93.49,2.5,1.31.14.19.25.4.33.62,2.08-1.46,4.66-2.29,7.5-2.29,3.88,0,7.33,1.51,9.7,4.25,1.63,1.93,2.57,4.23,2.84,6.86.09.92-.24,1.84-.91,2.49l-1.53,1.49.66.65c.92.89,1.18,2.26.66,3.43-1.99,4.44-6.03,6.88-11.37,6.88Zm-49.57-22.12v-6.7h-2.58c-1.68,0-3.04-1.36-3.04-3.04v-16.23c0-.52.13-1.03.38-1.47h-3.51v17.26h.34c1.68,0,3.04,1.36,3.04,3.04v7.14h5.36Zm8.71-10.19v-10.19h-2.8v10.19s2.78,0,2.8,0Z"/>
        <path class="cls-1" d="m84.45,67.22c-6.12,0-10.76-3.48-12.34-8.85l-2.46,6.52c-.45,1.18-1.58,1.97-2.85,1.97h-5.55c-1.26,0-2.39-.78-2.84-1.96l-3.27-8.55v7.46c0,1.68-1.36,3.04-3.04,3.04h-5.48c-.56,0-1.08-.15-1.53-.41-.45.27-.98.42-1.54.42h-5.62c-1.68,0-3.04-1.36-3.04-3.04v-7.47h-5.36v7.47c0,1.68-1.36,3.04-3.04,3.04h-5.66c-1.68,0-3.04-1.36-3.04-3.04v-22.86c0-.82.33-1.61.92-2.18l.38-.37h-1.62c-1.68,0-3.04-1.36-3.04-3.04v-17.71h-5.29c-1.68,0-3.04-1.36-3.04-3.04v-2.12c0-.82.33-1.61.92-2.18l3.09-3c.57-.55,1.33-.86,2.12-.86h16.18c.79,0,1.55.31,2.12.86l3.09,3c.59.57.92,1.36.92,2.18v.71c.28-.08.57-.12.86-.12h8.2v-.95c0-.82.33-1.61.92-2.18l3.09-3c.57-.55,1.33-.86,2.12-.86h2.39c1.68,0,3.04,1.36,3.04,3.04v4.43c0,.46-.1.89-.28,1.28.02.05.04.09.06.14.35-.35.76-.74,1.21-1.18.57-.56,1.33-.87,2.13-.87h2.36c.69,0,1.32.23,1.83.61,1.15-.54,2.39-.82,3.69-.82,2.45,0,4.42.59,5.94,1.78,1.54-1.17,3.49-1.78,5.8-1.78,4.25,0,6.55,2.1,7.74,3.86.15.23.29.46.42.69,1.78-2.83,5.35-4.55,9.97-4.55,5.35,0,8.38,2.25,9.99,4.13.02.03.04.05.07.08.41.52.75,1.07,1.02,1.63.55,1.17.3,2.56-.62,3.46-.5.49-.94.92-1.3,1.27,2.56,1.94,2.93,4.55,2.93,5.89,0,5.81-4.62,9.57-11.78,9.57-3.55,0-6.51-.92-8.62-2.61-.35,1.3-1.53,2.25-2.94,2.25h-5.45c-1.68,0-3.04-1.36-3.04-3.04v-10.56c0-.74-.12-1.12-.19-1.28,0,0-.02,0-.03,0-.08,0-.11,0-.11,0,0,.04-.22.46-.22,1.34v10.49c0,1.68-1.36,3.04-3.04,3.04h-5.43c-1.68,0-3.04-1.36-3.04-3.04v-10.49c0-.78-.17-1.2-.27-1.35-.03,0-.05,0-.05,0-.02.04-.23.47-.23,1.42v10.41c0,1.68-1.36,3.04-3.04,3.04h-5.48v3.62c0,.05,0,.1,0,.15.53-.41,1.18-.63,1.85-.63h2.81c1.3,0,2.45.82,2.88,2.05l1.48,4.28,1.5-4.29c.43-1.22,1.58-2.04,2.87-2.04h5.52c1,0,1.93.49,2.5,1.31.14.19.25.4.33.62,2.08-1.46,4.66-2.29,7.5-2.29,3.88,0,7.33,1.51,9.7,4.25,1.63,1.93,2.57,4.23,2.84,6.86.09.92-.24,1.84-.91,2.49l-1.53,1.49.66.65c.92.89,1.18,2.26.66,3.43-1.99,4.44-6.03,6.88-11.37,6.88Zm-49.57-22.12v-6.7h-2.58c-1.68,0-3.04-1.36-3.04-3.04v-16.23c0-.52.13-1.03.38-1.47h-3.51v17.26h.34c1.68,0,3.04,1.36,3.04,3.04v7.14h5.36Zm8.71-10.19v-10.19h-2.8v10.19s2.78,0,2.8,0Z"/>
        <path class="cls-1" d="m82.93,65.7c-6.12,0-10.76-3.48-12.34-8.85l-2.46,6.52c-.45,1.18-1.58,1.97-2.85,1.97h-5.55c-1.26,0-2.39-.78-2.84-1.96l-3.27-8.55v7.46c0,1.68-1.36,3.04-3.04,3.04h-5.48c-.56,0-1.08-.15-1.53-.41-.45.27-.98.42-1.54.42h-5.62c-1.68,0-3.04-1.36-3.04-3.04v-7.47h-5.36v7.47c0,1.68-1.36,3.04-3.04,3.04h-5.66c-1.68,0-3.04-1.36-3.04-3.04v-22.86c0-.82.33-1.61.92-2.18l.38-.37h-1.62c-1.68,0-3.04-1.36-3.04-3.04v-17.71h-5.29c-1.68,0-3.04-1.36-3.04-3.04v-2.12c0-.82.33-1.61.92-2.18l3.09-3c.57-.55,1.33-.86,2.12-.86h16.18c.79,0,1.55.31,2.12.86l3.09,3c.59.57.92,1.36.92,2.18v.71c.28-.08.57-.12.86-.12h8.2v-.95c0-.82.33-1.61.92-2.18l3.09-3c.57-.55,1.33-.86,2.12-.86h2.39c1.68,0,3.04,1.36,3.04,3.04v4.43c0,.46-.1.89-.28,1.28.02.05.04.09.06.14.35-.35.76-.74,1.21-1.18.57-.56,1.33-.87,2.13-.87h2.36c.69,0,1.32.23,1.83.61,1.15-.54,2.39-.82,3.69-.82,2.45,0,4.42.59,5.94,1.78,1.54-1.17,3.49-1.78,5.8-1.78,4.25,0,6.55,2.1,7.74,3.86.15.23.29.46.42.69,1.78-2.83,5.35-4.55,9.97-4.55,5.35,0,8.38,2.25,9.99,4.13.02.03.04.05.07.08.41.52.75,1.07,1.02,1.63.55,1.17.3,2.56-.62,3.46-.5.49-.94.92-1.3,1.27,2.56,1.94,2.93,4.55,2.93,5.89,0,5.81-4.62,9.57-11.78,9.57-3.55,0-6.51-.92-8.62-2.61-.35,1.3-1.53,2.25-2.94,2.25h-5.45c-1.68,0-3.04-1.36-3.04-3.04v-10.56c0-.74-.12-1.12-.19-1.28,0,0-.02,0-.03,0-.08,0-.11,0-.11,0,0,.04-.22.46-.22,1.34v10.49c0,1.68-1.36,3.04-3.04,3.04h-5.43c-1.68,0-3.04-1.36-3.04-3.04v-10.49c0-.78-.17-1.2-.27-1.35-.03,0-.05,0-.05,0-.02.04-.23.47-.23,1.42v10.41c0,1.68-1.36,3.04-3.04,3.04h-5.48v3.62c0,.05,0,.1,0,.15.53-.41,1.18-.63,1.85-.63h2.81c1.3,0,2.45.82,2.88,2.05l1.48,4.28,1.5-4.29c.43-1.22,1.58-2.04,2.87-2.04h5.52c1,0,1.93.49,2.5,1.31.14.19.25.4.33.62,2.08-1.46,4.66-2.29,7.5-2.29,3.88,0,7.33,1.51,9.7,4.25,1.63,1.93,2.57,4.23,2.84,6.86.09.92-.24,1.84-.91,2.49l-1.53,1.49.66.65c.92.89,1.18,2.26.66,3.43-1.99,4.44-6.03,6.88-11.37,6.88Zm-49.57-22.12v-6.7h-2.58c-1.68,0-3.04-1.36-3.04-3.04v-16.23c0-.52.13-1.03.38-1.47h-3.51v17.26h.34c1.68,0,3.04,1.36,3.04,3.04v7.14h5.36Zm8.71-10.19v-10.19h-2.8v10.19s2.78,0,2.8,0Z"/>
        <path class="cls-1" d="m81.41,64.18c-6.12,0-10.76-3.48-12.34-8.85l-2.46,6.52c-.45,1.18-1.58,1.97-2.85,1.97h-5.55c-1.26,0-2.39-.78-2.84-1.96l-3.27-8.55v7.46c0,1.68-1.36,3.04-3.04,3.04h-5.48c-.56,0-1.08-.15-1.53-.41-.45.27-.98.42-1.54.42h-5.62c-1.68,0-3.04-1.36-3.04-3.04v-7.47h-5.36v7.47c0,1.68-1.36,3.04-3.04,3.04h-5.66c-1.68,0-3.04-1.36-3.04-3.04v-22.86c0-.82.33-1.61.92-2.18l.38-.37h-1.62c-1.68,0-3.04-1.36-3.04-3.04V14.6h-5.29c-1.68,0-3.04-1.36-3.04-3.04v-2.12c0-.82.33-1.61.92-2.18l3.09-3c.57-.55,1.33-.86,2.12-.86h16.18c.79,0,1.55.31,2.12.86l3.09,3c.59.57.92,1.36.92,2.18v.71c.28-.08.57-.12.86-.12h8.2v-.95c0-.82.33-1.61.92-2.18l3.09-3c.57-.55,1.33-.86,2.12-.86h2.39c1.68,0,3.04,1.36,3.04,3.04v4.43c0,.46-.1.89-.28,1.28.02.05.04.09.06.14.35-.35.76-.74,1.21-1.18.57-.56,1.33-.87,2.13-.87h2.36c.69,0,1.32.23,1.83.61,1.15-.54,2.39-.82,3.69-.82,2.45,0,4.42.59,5.94,1.78,1.54-1.17,3.49-1.78,5.8-1.78,4.25,0,6.55,2.1,7.74,3.86.15.23.29.46.42.69,1.78-2.83,5.35-4.55,9.97-4.55,5.35,0,8.38,2.25,9.99,4.13.02.03.04.05.07.08.41.52.75,1.07,1.02,1.63.55,1.17.3,2.56-.62,3.46-.5.49-.94.92-1.3,1.27,2.56,1.94,2.93,4.55,2.93,5.89,0,5.81-4.62,9.57-11.78,9.57-3.55,0-6.51-.92-8.62-2.61-.35,1.3-1.53,2.25-2.94,2.25h-5.45c-1.68,0-3.04-1.36-3.04-3.04v-10.56c0-.74-.12-1.12-.19-1.28,0,0-.02,0-.03,0-.08,0-.11,0-.11,0,0,.04-.22.46-.22,1.34v10.49c0,1.68-1.36,3.04-3.04,3.04h-5.43c-1.68,0-3.04-1.36-3.04-3.04v-10.49c0-.78-.17-1.2-.27-1.35-.03,0-.05,0-.05,0-.02.04-.23.47-.23,1.42v10.41c0,1.68-1.36,3.04-3.04,3.04h-5.48v3.62c0,.05,0,.1,0,.15.53-.41,1.18-.63,1.85-.63h2.81c1.3,0,2.45.82,2.88,2.05l1.48,4.28,1.5-4.29c.43-1.22,1.58-2.04,2.87-2.04h5.52c1,0,1.93.49,2.5,1.31.14.19.25.4.33.62,2.08-1.46,4.66-2.29,7.5-2.29,3.88,0,7.33,1.51,9.7,4.25,1.63,1.93,2.57,4.23,2.84,6.86.09.92-.24,1.84-.91,2.49l-1.53,1.49.66.65c.92.89,1.18,2.26.66,3.43-1.99,4.44-6.03,6.88-11.37,6.88Zm-49.57-22.12v-6.7h-2.58c-1.68,0-3.04-1.36-3.04-3.04v-16.23c0-.52.13-1.03.38-1.47h-3.51v17.26h.34c1.68,0,3.04,1.36,3.04,3.04v7.14h5.36Zm8.71-10.19v-10.19h-2.8v10.19s2.78,0,2.8,0Z"/>
        <path class="cls-1" d="m79.89,62.65c-6.12,0-10.76-3.48-12.34-8.85l-2.46,6.52c-.45,1.18-1.58,1.97-2.85,1.97h-5.55c-1.26,0-2.39-.78-2.84-1.96l-3.27-8.55v7.46c0,1.68-1.36,3.04-3.04,3.04h-5.48c-.56,0-1.08-.15-1.53-.41-.45.27-.98.42-1.54.42h-5.62c-1.68,0-3.04-1.36-3.04-3.04v-7.47h-5.36v7.47c0,1.68-1.36,3.04-3.04,3.04h-5.66c-1.68,0-3.04-1.36-3.04-3.04v-22.86c0-.82.33-1.61.92-2.18l.38-.37h-1.62c-1.68,0-3.04-1.36-3.04-3.04V13.08h-5.29c-1.68,0-3.04-1.36-3.04-3.04v-2.12c0-.82.33-1.61.92-2.18l3.09-3c.57-.55,1.33-.86,2.12-.86h16.18c.79,0,1.55.31,2.12.86l3.09,3c.59.57.92,1.36.92,2.18v.71c.28-.08.57-.12.86-.12h8.2v-.95c0-.82.33-1.61.92-2.18l3.09-3c.57-.55,1.33-.86,2.12-.86h2.39c1.68,0,3.04,1.36,3.04,3.04v4.43c0,.46-.1.89-.28,1.28.02.05.04.09.06.14.35-.35.76-.74,1.21-1.18.57-.56,1.33-.87,2.13-.87h2.36c.69,0,1.32.23,1.83.61,1.15-.54,2.39-.82,3.69-.82,2.45,0,4.42.59,5.94,1.78,1.54-1.17,3.49-1.78,5.8-1.78,4.25,0,6.55,2.1,7.74,3.86.15.23.29.46.42.69,1.78-2.83,5.35-4.55,9.97-4.55,5.35,0,8.38,2.25,9.99,4.13.02.03.04.05.07.08.41.52.75,1.07,1.02,1.63.55,1.17.3,2.56-.62,3.46-.5.49-.94.92-1.3,1.27,2.56,1.94,2.93,4.55,2.93,5.89,0,5.81-4.62,9.57-11.78,9.57-3.55,0-6.51-.92-8.62-2.61-.35,1.3-1.53,2.25-2.94,2.25h-5.45c-1.68,0-3.04-1.36-3.04-3.04v-10.56c0-.74-.12-1.12-.19-1.28,0,0-.02,0-.03,0-.08,0-.11,0-.11,0,0,.04-.22.46-.22,1.34v10.49c0,1.68-1.36,3.04-3.04,3.04h-5.43c-1.68,0-3.04-1.36-3.04-3.04v-10.49c0-.78-.17-1.2-.27-1.35-.03,0-.05,0-.05,0-.02.04-.23.47-.23,1.42v10.41c0,1.68-1.36,3.04-3.04,3.04h-5.48v3.62c0,.05,0,.1,0,.15.53-.41,1.18-.63,1.85-.63h2.81c1.3,0,2.45.82,2.88,2.05l1.48,4.28,1.5-4.29c.43-1.22,1.58-2.04,2.87-2.04h5.52c1,0,1.93.49,2.5,1.31.14.19.25.4.33.62,2.08-1.46,4.66-2.29,7.5-2.29,3.88,0,7.33,1.51,9.7,4.25,1.63,1.93,2.57,4.23,2.84,6.86.09.92-.24,1.84-.91,2.49l-1.53,1.49.66.65c.92.89,1.18,2.26.66,3.43-1.99,4.44-6.03,6.88-11.37,6.88Zm-49.57-22.12v-6.7h-2.58c-1.68,0-3.04-1.36-3.04-3.04V14.56c0-.52.13-1.03.38-1.47h-3.51v17.26h.34c1.68,0,3.04,1.36,3.04,3.04v7.14h5.36Zm8.71-10.19v-10.19h-2.8v10.19s2.78,0,2.8,0Z"/>
        <path class="cls-1" d="m78.36,61.13c-6.12,0-10.76-3.48-12.34-8.85l-2.46,6.52c-.45,1.18-1.58,1.97-2.85,1.97h-5.55c-1.26,0-2.39-.78-2.84-1.96l-3.27-8.55v7.46c0,1.68-1.36,3.04-3.04,3.04h-5.48c-.56,0-1.08-.15-1.53-.41-.45.27-.98.42-1.54.42h-5.62c-1.68,0-3.04-1.36-3.04-3.04v-7.47h-5.36v7.47c0,1.68-1.36,3.04-3.04,3.04h-5.66c-1.68,0-3.04-1.36-3.04-3.04v-22.86c0-.82.33-1.61.92-2.18l.38-.37h-1.62c-1.68,0-3.04-1.36-3.04-3.04V11.56H3.04c-1.68,0-3.04-1.36-3.04-3.04v-2.12c0-.82.33-1.61.92-2.18l3.09-3c.57-.55,1.33-.86,2.12-.86h16.18c.79,0,1.55.31,2.12.86l3.09,3c.59.57.92,1.36.92,2.18v.71c.28-.08.57-.12.86-.12h8.2v-.95c0-.82.33-1.61.92-2.18l3.09-3c.57-.55,1.33-.86,2.12-.86h2.39c1.68,0,3.04,1.36,3.04,3.04v4.43c0,.46-.1.89-.28,1.28.02.05.04.09.06.14.35-.35.76-.74,1.21-1.18.57-.56,1.33-.87,2.13-.87h2.36c.69,0,1.32.23,1.83.61,1.15-.54,2.39-.82,3.69-.82,2.45,0,4.42.59,5.94,1.78,1.54-1.17,3.49-1.78,5.8-1.78,4.25,0,6.55,2.1,7.74,3.86.15.23.29.46.42.69,1.78-2.83,5.35-4.55,9.97-4.55,5.35,0,8.38,2.25,9.99,4.13.02.03.04.05.07.08.41.52.75,1.07,1.02,1.63.55,1.17.3,2.56-.62,3.46-.5.49-.94.92-1.3,1.27,2.56,1.94,2.93,4.55,2.93,5.89,0,5.81-4.62,9.57-11.78,9.57-3.55,0-6.51-.92-8.62-2.61-.35,1.3-1.53,2.25-2.94,2.25h-5.45c-1.68,0-3.04-1.36-3.04-3.04v-10.56c0-.74-.12-1.12-.19-1.28,0,0-.02,0-.03,0-.08,0-.11,0-.11,0,0,.04-.22.46-.22,1.34v10.49c0,1.68-1.36,3.04-3.04,3.04h-5.43c-1.68,0-3.04-1.36-3.04-3.04v-10.49c0-.78-.17-1.2-.27-1.35-.03,0-.05,0-.05,0-.02.04-.23.47-.23,1.42v10.41c0,1.68-1.36,3.04-3.04,3.04h-5.48v3.62c0,.05,0,.1,0,.15.53-.41,1.18-.63,1.85-.63h2.81c1.3,0,2.45.82,2.88,2.05l1.48,4.28,1.5-4.29c.43-1.22,1.58-2.04,2.87-2.04h5.52c1,0,1.93.49,2.5,1.31.14.19.25.4.33.62,2.08-1.46,4.66-2.29,7.5-2.29,3.88,0,7.33,1.51,9.7,4.25,1.63,1.93,2.57,4.23,2.84,6.86.09.92-.24,1.84-.91,2.49l-1.53,1.49.66.65c.92.89,1.18,2.26.66,3.43-1.99,4.44-6.03,6.88-11.37,6.88Zm-49.57-22.12v-6.7h-2.58c-1.68,0-3.04-1.36-3.04-3.04V13.03c0-.52.13-1.03.38-1.47h-3.51v17.26h.34c1.68,0,3.04,1.36,3.04,3.04v7.14h5.36Zm8.71-10.19v-10.19h-2.8v10.19s2.78,0,2.8,0Z"/>
      </g>
      <path class="cls-2" d="m40.54,34.5v1.43h5.48v-4.43h-2.39l-3.09,3Zm-14.32-21.47v16.23h5.45v-10.95c0-1.7,1.25-2.73,2.89-2.73h3.78v-5.55h-9.02c-2.02,1.95-3.09,3-3.09,3Zm14.31,44.69h5.48v-19.23h-5.48v19.23Zm14.01-38.87c0-3.03,1.45-4.47,3.36-4.47s3.27,1.67,3.27,4.4v10.49h5.43v-10.49c0-2.55,1.16-4.4,3.38-4.4s3.26,1.59,3.26,4.32v10.56h5.45v-10.62c0-2.64-.56-4.76-1.67-6.45-1.14-1.7-2.88-2.52-5.21-2.52-3.27,0-4.94,1.52-5.86,3.78-.88-2.27-2.28-3.78-5.88-3.78-1.74,0-3.22.72-4.49,2.16-.4.47-.77,1.04-1.03,1.73v-3.68h-2.36c-2.01,1.97-3.09,3-3.09,3v16.38h5.45v-10.41Zm-37.53,10.41V8.52h8.39v-2.12s-1.06-1.04-3.09-3H6.13c-2.02,1.97-3.09,3-3.09,3v2.12h8.33v20.75h5.63Zm14.83,12.78h-11.45v-10.19h-2.58c-2.02,1.97-3.09,3-3.09,3v22.86h5.66v-10.52h11.45v10.52h5.62v-25.86h-5.62v10.19Zm55.99,4.46c-.17-1.67-.73-3.53-2.11-5.18-1.74-2.01-4.3-3.2-7.41-3.2-5.71,0-9.83,4.17-9.83,9.9s3.96,10.05,9.89,10.05c3.98,0,7.07-1.68,8.59-5.09-.51-.5-1.3-1.26-2.33-2.27h-1.96c-.6,1.73-1.9,2.52-4.15,2.52-1.96,0-3.3-.87-4-2.19-.23-.43-.37-.98-.45-1.62h10.72s1.05-1.02,3.02-2.94Zm-13.64-.63c.08-.39.19-.72.34-1.01.74-1.55,1.85-2.45,3.78-2.45,2.41,0,3.95,1.76,4.07,3.45h-8.19Zm19.02-27.77l-3.38-.59c-1.77-.29-2.7-.98-2.7-2.27s1.33-1.85,2.85-1.85c1.88,0,3.59.66,3.63,2.82h2.11s.88-.84,2.53-2.46c-.17-.36-.39-.71-.65-1.04-1.62-1.91-4.1-3.06-7.67-3.06-5.06,0-8.18,2.45-8.18,6.02,0,2.78,2.19,4.53,5.85,5.22l3.44.62c1.93.32,2.59.96,2.59,2.16,0,1.26-1.4,2.01-3.44,2.01s-3.36-.62-3.63-2.91h-2.3c-1.2,1.17-2.05,2.01-2.55,2.48,1.16,2.87,4.26,4.37,8.52,4.37,5.62,0,8.73-2.49,8.73-6.53,0-2.45-1.74-4.32-5.77-5Zm-35.15,32.92l-4.34-12.53h-2.81c-.97.95-1.73,1.68-2.25,2.19l6.51,17.04h5.55l7.25-19.23h-5.52l-4.4,12.53Zm-17.5-21.76h5.48V10.03h-5.48v19.23Zm0-23.22v1.43h5.48V3.04h-2.39c-2.02,1.97-3.09,3-3.09,3Z"/>
    </g>
  </g>
</svg>